<svg width="457" height="59" viewBox="0 0 457 59" fill="none" xmlns="http://www.w3.org/2000/svg">
<rect x="2" y="-2" width="54.0204" height="54.0204" transform="matrix(1 0 0 -1 0 54.0204)" fill="#11A579" fill-opacity="0.35" stroke="#11A579" stroke-width="4"/>
<rect x="2" y="-2" width="54.0204" height="54.0204" transform="matrix(1 0 0 -1 79.6182 54.0204)" fill="#CC503E" fill-opacity="0.35" stroke="#CC503E" stroke-width="4"/>
<rect x="2" y="-2" width="54.0204" height="54.0204" transform="matrix(1 0 0 -1 159.237 54.0204)" fill="#B65CCC" fill-opacity="0.35" stroke="#B65CCC" stroke-width="4"/>
<rect x="2" y="-2" width="54.0204" height="54.0204" transform="matrix(1 0 0 -1 238.855 54.0204)" fill="#4BB5EF" fill-opacity="0.35" stroke="#4BB5EF" stroke-width="4"/>
<rect x="2" y="-2" width="54.0204" height="54.0204" transform="matrix(1 0 0 -1 398.093 54.0204)" fill="#7EB659" fill-opacity="0.35" stroke="#7EB659" stroke-width="4"/>
<rect x="2" y="-2" width="54.0204" height="54.0204" transform="matrix(1 0 0 -1 318.474 54.0204)" fill="#F2B701" fill-opacity="0.35" stroke="#F2B701" stroke-width="4"/>
</svg>
