<svg width="50" height="50" viewBox="0 0 50 50" fill="none" xmlns="http://www.w3.org/2000/svg">
<path d="M29.1665 16.6667H8.33317C6.03525 16.6667 4.1665 18.5354 4.1665 20.8333V41.6667C4.1665 43.9646 6.03525 45.8333 8.33317 45.8333H29.1665C31.4644 45.8333 33.3332 43.9646 33.3332 41.6667V20.8333C33.3332 18.5354 31.4644 16.6667 29.1665 16.6667Z" fill="#F8F8F8"/>
<path d="M41.6665 4.16666H20.8332C19.7281 4.16666 18.6683 4.60565 17.8869 5.38705C17.1055 6.16845 16.6665 7.22826 16.6665 8.33333V12.5H33.3332C34.4382 12.5 35.498 12.939 36.2794 13.7204C37.0608 14.5018 37.4998 15.5616 37.4998 16.6667V33.3333H41.6665C42.7716 33.3333 43.8314 32.8943 44.6128 32.1129C45.3942 31.3315 45.8332 30.2717 45.8332 29.1667V8.33333C45.8332 7.22826 45.3942 6.16845 44.6128 5.38705C43.8314 4.60565 42.7716 4.16666 41.6665 4.16666Z" fill="#F8F8F8"/>
</svg>
